<svg width="32" height="32" viewBox="0 0 32 32" fill="none" xmlns="http://www.w3.org/2000/svg">
<circle cx="16" cy="16" r="16" fill="#5EA362"/>
<path d="M12 8C8.5 8 6 10.5 6 14C6 17.5 8.5 20 12 20C13.5 20 15 19.5 16 18.5C17 19.5 18.5 20 20 20C23.5 20 26 17.5 26 14C26 10.5 23.5 8 20 8C18.5 8 17 8.5 16 9.5C15 8.5 13.5 8 12 8Z" fill="white" fill-opacity="0.9"/>
<circle cx="16" cy="16" r="3" fill="#5EA362"/>
<path d="M10 12C11.5 12 12.8 13.3 12.8 15S11.5 18 10 18S7.2 16.7 7.2 15S8.5 12 10 12Z" fill="white" fill-opacity="0.7"/>
<path d="M22 12C23.5 12 24.8 13.3 24.8 15S23.5 18 22 18S19.2 16.7 19.2 15S20.5 12 22 12Z" fill="white" fill-opacity="0.7"/>
</svg>