<?xml version="1.0" encoding="UTF-8"?>
<svg width="32" height="32" viewBox="0 0 32 32" fill="none" xmlns="http://www.w3.org/2000/svg">
<rect width="32" height="32" rx="16" fill="#5EA362"/>
<path d="M16 8C11.6 8 8 11.6 8 16C8 20.4 11.6 24 16 24C18.2 24 20.2 23.2 21.6 21.8C23 20.4 24 18.4 24 16C24 11.6 20.4 8 16 8Z" fill="white"/>
<path d="M12 12C14.8 12 17 14.2 17 17C17 19.8 14.8 22 12 22C10.4 22 9 21.2 8.2 20C7.4 18.8 7 17.4 7 16C7 12.7 9.7 10 13 10C14.4 10 15.6 10.4 16.8 11.2C18.6 12.4 20 14.6 20 17C20 19.4 18.6 21.6 16.8 22.8C15.6 23.6 14.4 24 13 24" stroke="#5EA362" stroke-width="0.8" fill="none"/>
</svg>